<svg viewBox="0 0 16 9" fill="none" xmlns="http://www.w3.org/2000/svg">
<path d="M9.43725 8.46931C8.57131 8.0023 7.34744 7.98828 6.47075 8.43492C5.86519 8.74347 5.17969 8.91745 4.45361 8.91745C1.99396 8.91745 0 6.92119 0 4.45872C0 1.9962 1.99396 0 4.45361 0C5.21669 0 5.93494 0.192134 6.56275 0.530714C7.42869 0.997728 8.65256 1.01172 9.52919 0.565063C10.1348 0.256518 10.8203 0.0825703 11.5464 0.0825703C14.0061 0.0825703 16 2.07881 16 4.54128C16 7.0038 14.0061 9 11.5464 9C10.7833 9 10.0651 8.8079 9.43725 8.46931Z" fill="url(#paint0_linear_188_55)"/>
<defs>
<linearGradient id="paint0_linear_188_55" x1="-2.5" y1="5" x2="17.5" y2="5" gradientUnits="userSpaceOnUse">
<stop stop-color="#F2FF80"/>
<stop offset="1" stop-color="#B6E388"/>
</linearGradient>
</defs>
</svg>
