<svg viewBox="0 0 339 108" fill="none" xmlns="http://www.w3.org/2000/svg">
<path d="M74.0412 0C75.4964 1.8178 76.9153 3.47654 78.2526 5.21708C85.8413 15.1014 92.7591 25.3992 97.1972 37.1467C99.142 42.2729 100.398 47.54 100.18 53.0934C99.9262 59.6223 97.1277 64.7394 91.7845 68.4447C87.0245 71.7349 81.6435 73.8981 75.9951 74.1844C66.9285 74.6661 58.7686 71.7167 52.3586 65.0363C47.712 60.1828 47.1725 53.9841 48.0157 47.6445C49.0992 39.5235 52.4447 32.1932 56.3751 25.1311C61.2179 16.5192 66.8693 8.39009 73.2524 0.854366C73.4519 0.599874 73.6967 0.368104 74.0412 0Z" fill="var(--logo1)"/>
<path d="M56.2255 73.2891C54.045 73.2891 51.8645 73.3482 49.684 73.2891C39.0535 72.9528 28.908 70.8124 19.9049 64.7955C8.89814 57.4197 2.79182 46.8083 0.0129278 34.0837C-0.0822709 33.6293 0.366523 32.7204 0.760917 32.5795C8.03906 29.9846 15.8285 29.1621 23.4862 30.18C23.7462 30.2765 23.9796 30.4335 24.1672 30.6382C24.3548 30.8428 24.4912 31.0892 24.5651 31.357C27.2126 44.8587 34.7514 55.1248 45.4816 63.323C46.7192 64.2683 47.7483 65.5044 48.8997 66.5633C50.8551 68.3538 52.8301 70.1231 54.8247 71.8712C55.2962 72.2404 55.7897 72.5804 56.3025 72.8892L56.2255 73.2891Z" fill="var(--logo1)"/>
<path d="M91.585 73.121C93.4663 71.6531 95.5153 70.567 96.8436 68.9082C99.7222 65.3181 103.449 62.7459 106.817 59.7374C115.367 52.0663 121.16 42.7592 123.409 31.357C123.503 31.0716 123.665 30.8131 123.881 30.6035C124.096 30.3939 124.359 30.2393 124.646 30.1527C132.134 29.1919 139.742 29.9566 146.891 32.3886C147.961 32.7386 148.124 33.2385 147.929 34.2519C143.976 54.6158 128.848 69.2127 108.19 72.2575C103.29 72.9756 98.2806 72.9665 93.3167 73.2664C92.7368 73.2583 92.1582 73.2097 91.585 73.121Z" fill="var(--logo1)"/>
<path d="M103.784 57.6242C104.831 50.6848 103.539 44.2816 101.481 37.9784C99.355 31.4752 96.2316 25.4492 92.7455 19.5686L91.585 17.6281C96.0189 13.2488 101.314 9.84374 107.134 7.63021C109.972 6.54408 112.968 5.87149 115.856 4.90351C117.144 4.47179 117.57 5.03076 117.91 6.11235C120.105 12.9239 120.866 20.1181 120.145 27.2397C119.269 35.8793 115.826 44.0564 110.262 50.7121C108.272 53.1706 105.955 55.3247 103.784 57.6242Z" fill="var(--logo2)"/>
<path d="M44.5886 57.7151C35.4903 49.8622 29.7013 40.5597 27.9787 28.9803C26.844 21.2041 27.5791 13.2688 30.1229 5.83514C30.4266 4.92624 30.7984 4.60358 31.8501 4.8308C40.6131 6.60657 48.7482 10.6842 55.4231 16.6465C56.3297 17.4736 56.162 18.0371 55.6271 18.9187C51.3658 25.9809 47.6168 33.2839 45.4816 41.3095C44.0627 46.6084 43.283 51.9572 44.5886 57.7151Z" fill="var(--logo2)"/>
<path d="M73.9052 108C68.2024 100.365 62.6355 93.0395 60.3054 83.8869C59.8521 82.0464 59.8521 80.0786 59.7388 78.1608C59.6662 77.0474 60.0788 76.3067 61.3979 76.4339C63.0571 76.5884 64.8115 76.393 66.3845 76.8656C71.7882 78.5062 77.0604 78.229 82.4142 76.6248C83.9056 76.1703 85.6373 76.4157 87.2376 76.5566C87.5866 76.5884 88.1442 77.5655 88.1034 78.079C87.9856 80.274 87.981 82.5463 87.3917 84.6367C84.912 93.4394 79.6988 100.702 73.9052 108Z" fill="var(--logo1)"/>
<path d="M127.992 78.3426C125.127 79.6514 122.289 80.7512 119.65 82.21C117.1 83.681 114.639 85.3016 112.279 87.0635C107.982 90.1538 103.09 91.3308 97.9452 91.5807C95.5289 91.6943 93.0991 91.3899 90.6919 91.2944C89.6175 91.2581 89.2866 90.8718 89.7037 89.7902C91.177 86.0183 92.2242 82.16 91.8434 78.0427C91.7301 76.7793 92.6367 76.9065 93.4482 76.9474C101.696 77.3807 109.955 76.3452 117.842 73.889C119.116 73.4891 120.303 72.3939 121.849 73.2028C124.302 74.5025 126.523 76.0613 127.992 78.3426Z" fill="var(--logo2)"/>
<path d="M19.6239 78.6198C21.3482 76.1483 23.7379 74.2191 26.5144 73.0574C26.9907 72.9114 27.5022 72.9323 27.9651 73.1164C36.3652 76.2067 45.0691 77.2565 53.9589 76.8929C55.6407 76.8247 56.085 77.152 55.9988 79.0243C55.8266 82.6599 56.7559 86.2137 58.1612 89.5948C58.542 90.5037 58.5238 91.2354 57.3543 91.2399C53.6959 91.2399 50.0149 91.4262 46.3838 91.0945C41.9094 90.6809 37.9564 88.7586 34.298 86.0955C29.9053 82.9007 25.363 79.8923 19.6239 78.6198Z" fill="var(--logo2)"/>
<path d="M183.676 70V41.9922H189.398L201.527 61.7578V41.9922H206.801V70H201.117L188.969 50.2734V70H183.676Z" fill="currentColor"/>
<path d="M239.966 70L237.563 63.4766H226.762L224.36 70H218.911L229.673 41.9922H234.634L245.434 70H239.966ZM228.442 59.0039H235.962L232.192 48.7695L228.442 59.0039Z" fill="currentColor"/>
<path d="M257.31 70V41.9922H266.392C267.955 41.9922 269.446 42.1745 270.865 42.5391C272.284 42.9036 273.593 43.4701 274.791 44.2383C276.002 44.9935 277.043 45.918 277.916 47.0117C278.801 48.1055 279.491 49.4206 279.986 50.957C280.494 52.4935 280.748 54.1732 280.748 55.9961C280.748 57.819 280.494 59.4987 279.986 61.0352C279.491 62.5716 278.801 63.8867 277.916 64.9805C277.043 66.0742 276.002 67.0052 274.791 67.7734C273.593 68.5286 272.284 69.0885 270.865 69.4531C269.446 69.8177 267.955 70 266.392 70H257.31ZM262.603 65.3906H265.962C266.965 65.3906 267.909 65.293 268.795 65.0977C269.693 64.8893 270.552 64.5508 271.373 64.082C272.193 63.6003 272.896 63.0078 273.482 62.3047C274.068 61.5885 274.53 60.6966 274.869 59.6289C275.22 58.5482 275.396 57.3372 275.396 55.9961C275.396 54.3294 275.136 52.8711 274.615 51.6211C274.094 50.3711 273.378 49.388 272.466 48.6719C271.568 47.9557 270.572 47.4284 269.478 47.0898C268.397 46.7383 267.226 46.5625 265.962 46.5625H262.603V65.3906Z" fill="currentColor"/>
<path d="M294.088 70V41.9922H299.42V70H294.088Z" fill="currentColor"/>
<path d="M332.566 70L330.163 63.4766H319.362L316.96 70H311.511L322.273 41.9922H327.234L338.034 70H332.566ZM321.042 59.0039H328.562L324.792 48.7695L321.042 59.0039Z" fill="currentColor"/>
</svg>
