<svg viewBox="0 0 102 30" fill="none" xmlns="http://www.w3.org/2000/svg">
  <path
    fill-rule="evenodd"
    clip-rule="evenodd"
    d="M23.1961 0.00523881C23.3215 -0.00917675 23.4434 0.00615875 23.5614 0.0512361C26.843 2.78007 28.9282 6.2605 29.8171 10.4926C31.0588 16.3761 29.7194 21.5586 25.7989 26.0397C25.0327 26.7966 24.226 27.5018 23.3788 28.1556C18.3871 24.2905 16.1191 19.1695 16.5752 12.7925C16.9737 9.04803 18.2828 5.67487 20.5021 2.67308C21.3299 1.70107 22.2279 0.811848 23.1961 0.00523881Z"
    fill="#B6E388"
  />
  <path
    fill-rule="evenodd"
    clip-rule="evenodd"
    d="M10.4109 1.38516C12.6041 1.95322 14.5827 2.93453 16.3469 4.32899C13.5586 9.81619 13.1172 15.4892 15.0227 21.348C15.5652 22.7478 16.2501 24.0664 17.0775 25.3038C14.93 24.3586 13.0884 22.9481 11.5524 21.072C7.78852 16.1391 6.87528 10.7114 8.81271 4.78896C9.24969 3.60214 9.78247 2.46757 10.4109 1.38516Z"
    fill="#C7F2A4"
  />
  <path
    fill-rule="evenodd"
    clip-rule="evenodd"
    d="M36.2554 1.38516C39.8511 7.35874 39.8967 13.3691 36.3924 19.4161C34.6962 22.0032 32.474 23.9964 29.7258 25.3958C33.1717 19.7297 33.8413 13.7193 31.7349 7.36481C31.3436 6.33125 30.9023 5.31931 30.4107 4.32899C31.0464 3.76662 31.7466 3.29138 32.5111 2.90307C33.7282 2.29563 34.9763 1.78966 36.2554 1.38516Z"
    fill="#C7F2A4"
  />
  <path
    fill-rule="evenodd"
    clip-rule="evenodd"
    d="M0 17.6682C0 17.5148 0 17.3616 0 17.2082C1.20487 16.6016 2.45296 16.0956 3.74426 15.6903C4.40624 15.4956 5.07595 15.3728 5.75337 15.3223C8.02605 22.7021 12.8662 27.3938 20.2738 29.3975C13.471 30.987 7.76334 29.1625 3.15066 23.9238C1.73589 22.0241 0.685671 19.9389 0 17.6682Z"
    fill="#E1FFB1"
  />
  <path
    fill-rule="evenodd"
    clip-rule="evenodd"
    d="M46.7576 17.2082C46.7576 17.3616 46.7576 17.5148 46.7576 17.6682C44.6633 24.5461 40.0971 28.6092 33.0591 29.8575C30.8353 30.1478 28.6436 29.9946 26.4838 29.3975C33.8914 27.3938 38.7315 22.7021 41.0042 15.3223C42.259 15.4544 43.4766 15.761 44.6571 16.2423C45.3592 16.5654 46.0594 16.8874 46.7576 17.2082Z"
    fill="#E1FFB1"
  />
  <path
    d="M56.891 19.7059V11.4683H58.5634L62.1079 17.2817V11.4683H63.649V19.7059H61.988L58.4378 13.904V19.7059H56.891Z"
    fill="currentColor"
  />
  <path
    d="M73.3409 19.7059L72.6388 17.7872H69.4825L68.7804 19.7059H67.188L70.3329 11.4683H71.7827L74.9391 19.7059H73.3409ZM69.9734 16.4717H72.1708L71.0692 13.4616L69.9734 16.4717Z"
    fill="currentColor"
  />
  <path
    d="M78.4096 19.7059V11.4683H81.0637C81.5203 11.4683 81.956 11.5219 82.3707 11.6291C82.7855 11.7364 83.1679 11.903 83.518 12.1289C83.8719 12.351 84.1763 12.6229 84.4312 12.9446C84.69 13.2663 84.8916 13.6531 85.0362 14.105C85.1846 14.5569 85.2588 15.0509 85.2588 15.5871C85.2588 16.1232 85.1846 16.6173 85.0362 17.0692C84.8916 17.5211 84.69 17.9079 84.4312 18.2296C84.1763 18.5512 83.8719 18.8251 83.518 19.051C83.1679 19.2731 82.7855 19.4378 82.3707 19.545C81.956 19.6523 81.5203 19.7059 81.0637 19.7059H78.4096ZM79.9564 18.3502H80.9381C81.2311 18.3502 81.507 18.3215 81.7657 18.264C82.0283 18.2027 82.2794 18.1032 82.5191 17.9653C82.7589 17.8236 82.9643 17.6494 83.1356 17.4426C83.3068 17.2319 83.4419 16.9696 83.5408 16.6556C83.6435 16.3377 83.6949 15.9815 83.6949 15.5871C83.6949 15.0969 83.6188 14.668 83.4666 14.3003C83.3144 13.9327 83.1051 13.6435 82.8388 13.4329C82.5762 13.2223 82.2851 13.0672 81.9655 12.9676C81.6497 12.8642 81.3072 12.8125 80.9381 12.8125H79.9564V18.3502Z"
    fill="currentColor"
  />
  <path
    d="M89.1574 19.7059V11.4683H90.7156V19.7059H89.1574Z"
    fill="currentColor"
  />
  <path
    d="M100.402 19.7059L99.6998 17.7872H96.5434L95.8414 19.7059H94.2489L97.3939 11.4683H98.8436L102 19.7059H100.402ZM97.0343 16.4717H99.2318L98.1302 13.4616L97.0343 16.4717Z"
    fill="currentColor"
  />
</svg>
